<svg width="40" height="16" viewBox="0 0 40 16" fill="none" xmlns="http://www.w3.org/2000/svg">
<path d="M14.7847 8.32494C14.7847 9.96889 14.457 11.3624 13.8016 12.5053C13.1462 13.6483 12.2588 14.5165 11.1396 15.1099C10.0254 15.7033 8.77503 16 7.38857 16C5.99707 16 4.74421 15.7008 3.63 15.1026C2.51579 14.5044 1.63098 13.6362 0.975564 12.4981C0.325188 11.3551 0 9.96403 0 8.32494C0 6.68098 0.325188 5.28751 0.975564 4.14452C1.63098 3.00154 2.51579 2.13335 3.63 1.53997C4.74421 0.946592 5.99707 0.649902 7.38857 0.649902C8.77503 0.649902 10.0254 0.946592 11.1396 1.53997C12.2588 2.13335 13.1462 3.00154 13.8016 4.14452C14.457 5.28751 14.7847 6.68098 14.7847 8.32494ZM10.9581 8.32494C10.9581 7.35218 10.8144 6.5302 10.527 5.859C10.2447 5.1878 9.8363 4.67954 9.30189 4.33421C8.77251 3.98888 8.13474 3.81622 7.38857 3.81622C6.64744 3.81622 6.00967 3.98888 5.47526 4.33421C4.94084 4.67954 4.52994 5.1878 4.24257 5.859C3.96023 6.5302 3.81907 7.35218 3.81907 8.32494C3.81907 9.29769 3.96023 10.1197 4.24257 10.7909C4.52994 11.4621 4.94084 11.9703 5.47526 12.3157C6.00967 12.661 6.64744 12.8337 7.38857 12.8337C8.13474 12.8337 8.77251 12.661 9.30189 12.3157C9.8363 11.9703 10.2447 11.4621 10.527 10.7909C10.8144 10.1197 10.9581 9.29769 10.9581 8.32494Z" fill="#181D25"/>
<path d="M16.9703 15.7957V0.854181H27.5427V3.78704H20.7137V6.85121H26.8696V9.79136H20.7137V15.7957H16.9703Z" fill="#181D25"/>
<path d="M29.4276 15.7957V0.854181H40V3.78704H33.1711V6.85121H39.3269V9.79136H33.1711V15.7957H29.4276Z" fill="#181D25"/>
</svg>
