<svg width="39" height="42" viewBox="0 0 39 42" fill="none" xmlns="http://www.w3.org/2000/svg">
<path d="M20.946 32.5491V30.523C20.946 28.9846 21.2831 27.5713 21.9572 26.2831C22.6444 24.9824 23.6361 23.9444 24.9326 23.1689C26.2419 22.381 27.8366 21.987 29.7164 21.987C31.6221 21.987 33.2232 22.3747 34.5197 23.1502C35.829 23.9256 36.8143 24.9637 37.4755 26.2644C38.1497 27.5526 38.4867 28.9721 38.4867 30.523V32.5491C38.4867 34.0874 38.1497 35.5069 37.4755 36.8076C36.8014 38.0958 35.8096 39.1277 34.5002 39.9031C33.1908 40.691 31.5962 41.085 29.7164 41.085C27.8106 41.085 26.2095 40.691 24.9131 39.9031C23.6167 39.1277 22.6314 38.0958 21.9572 36.8076C21.2831 35.5069 20.946 34.0874 20.946 32.5491ZM26.6049 30.523V32.5491C26.6049 33.437 26.8253 34.275 27.2661 35.0629C27.7199 35.8509 28.5366 36.2448 29.7164 36.2448C30.8961 36.2448 31.6999 35.8571 32.1277 35.0817C32.5685 34.3063 32.7889 33.4621 32.7889 32.5491V30.523C32.7889 29.61 32.5815 28.7595 32.1666 27.9716C31.7518 27.1836 30.935 26.7897 29.7164 26.7897C28.5496 26.7897 27.7393 27.1836 27.2856 27.9716C26.8318 28.7595 26.6049 29.61 26.6049 30.523ZM0.507812 10.562V8.53592C0.507812 6.98507 0.851366 5.56554 1.53847 4.27734C2.22558 2.97663 3.21735 1.93856 4.51378 1.16314C5.82317 0.387713 7.40482 0 9.25872 0C11.1774 0 12.785 0.387713 14.0814 1.16314C15.3779 1.93856 16.3631 2.97663 17.0373 4.27734C17.7114 5.56554 18.0485 6.98507 18.0485 8.53592V10.562C18.0485 12.1129 17.705 13.5324 17.0178 14.8206C16.3437 16.1088 15.3519 17.1406 14.0425 17.9161C12.7461 18.679 11.1515 19.0604 9.25872 19.0604C7.36593 19.0604 5.76484 18.6727 4.45544 17.8973C3.15901 17.1094 2.17372 16.0775 1.49958 14.8018C0.838402 13.5136 0.507812 12.1004 0.507812 10.562ZM6.20562 8.53592V10.562C6.20562 11.475 6.42602 12.3192 6.8668 13.0947C7.32055 13.8701 8.11786 14.2578 9.25872 14.2578C10.4514 14.2578 11.2617 13.8701 11.6895 13.0947C12.1303 12.3192 12.3507 11.475 12.3507 10.562V8.53592C12.3507 7.62292 12.1433 6.77246 11.7284 5.98452C11.3136 5.19659 10.4903 4.80263 9.25872 4.80263C8.10489 4.80263 7.30759 5.20285 6.8668 6.00328C6.42602 6.80372 6.20562 7.64793 6.20562 8.53592ZM3.07474 39.753L30.4553 1.33198H35.5503L8.16971 39.753H3.07474Z" fill="#181D25"/>
</svg>
